<svg width="200" height="100" viewBox="0 0 200 100" fill="none" xmlns="http://www.w3.org/2000/svg">
<rect width="200" height="100" fill="white"/>
<path d="M122.84 65.2932V36.2953H127.645V65.2932H122.84ZM103.453 65.2932V36.2953H108.258V65.2932H103.453ZM107.222 52.617V48.2259H124.787V52.617H107.222Z" fill="#01221B"/>
<path d="M86.0685 65.7903C83.2792 65.7903 80.7937 65.1551 78.6119 63.8847C76.4578 62.5867 74.7593 60.8192 73.5166 58.5822C72.3014 56.3176 71.6938 53.7216 71.6938 50.7942C71.6938 47.8668 72.3014 45.2846 73.5166 43.0477C74.7593 40.7831 76.4578 39.0156 78.6119 37.7452C80.766 36.4472 83.2378 35.7982 86.0271 35.7982C87.905 35.7982 89.6725 36.1434 91.3296 36.8338C92.9866 37.4966 94.4503 38.4218 95.7207 39.6093C97.0187 40.7969 98.0129 42.1777 98.7033 43.7519L94.3122 45.5332C93.8151 44.4837 93.1385 43.5586 92.2823 42.7577C91.4538 41.9292 90.501 41.294 89.424 40.8521C88.3469 40.4102 87.2146 40.1893 86.0271 40.1893C84.2044 40.1893 82.575 40.645 81.1389 41.5563C79.7304 42.4677 78.6119 43.7243 77.7834 45.3261C76.9825 46.9002 76.5821 48.723 76.5821 50.7942C76.5821 52.8655 76.9825 54.702 77.7834 56.3038C78.6119 57.9056 79.7442 59.1622 81.1803 60.0736C82.644 60.9849 84.301 61.4406 86.1514 61.4406C87.3665 61.4406 88.4988 61.2059 89.5483 60.7364C90.6253 60.2393 91.5781 59.5626 92.4066 58.7065C93.2627 57.8504 93.9394 56.8562 94.4365 55.7239L98.8276 57.5052C98.1372 59.1346 97.1568 60.5845 95.8864 61.8549C94.616 63.0976 93.1385 64.0642 91.4538 64.7546C89.7692 65.4451 87.9741 65.7903 86.0685 65.7903Z" fill="#01221B"/>
<path d="M53.2205 65.2932L64.5711 36.2953H69.7079L57.9845 65.2932H53.2205ZM52.7234 65.2932L41 36.2953H46.0953L57.4459 65.2932H52.7234Z" fill="#01221B"/>
<path fill-rule="evenodd" clip-rule="evenodd" d="M139.642 42.5721L139.683 28L143.882 28.0119L143.851 38.9358L153.291 33.4857L155.39 37.1221L142.791 44.3962L139.642 42.5721Z" fill="#FF521A"/>
<path fill-rule="evenodd" clip-rule="evenodd" d="M143.614 48.6688L156.236 41.3985L158.332 45.037L148.857 50.494L158.296 55.966L156.19 59.5985L143.608 52.3044L143.614 48.6688Z" fill="#FFAE00"/>
<path fill-rule="evenodd" clip-rule="evenodd" d="M139.674 58.4279L139.715 73L143.914 72.9881L143.883 62.0642L153.323 67.5143L155.422 63.8779L142.823 56.6038L139.674 58.4279Z" fill="#007A53"/>
</svg>
